# xmcd
# 
# Track frame offsets:
#     150
#     15397
#     24760
#     45457
#     56635
#     67432
#     79432
#     92110
#     103432
#     116185
#     130807
#     141385
#     155632
# 
# Disc length: 2258
# 
# Revision: 4
# Processed by: cddbd v1.5.2PL0 Copyright (c) Steve Scherf et al.
# Submitted via: fre:ac v1.0.31
# 
DISCID=bd08d00d
DTITLE=John McEuen - String Wizards
DYEAR=1991
DGENRE=Country
TTITLE0=Return to Dismal Swamp
TTITLE1=Tall Timber
TTITLE2=Blackberry Jam
TTITLE3=Carolina Traveler
TTITLE4=Fireball Mail
TTITLE5=Friday Night at Maybelle's
TTITLE6=Miner's Night Out
TTITLE7=Spinning Wheel
TTITLE8=Dixie Hoedown
TTITLE9=Cripple Creek
TTITLE10=Shuckin' the Corn
TTITLE11=John's WSM Radio Blues
TTITLE12=Stars and Stripes Forever
EXTD=
EXTT0=
EXTT1=
EXTT2=
EXTT3=
EXTT4=
EXTT5=
EXTT6=
EXTT7=
EXTT8=
EXTT9=
EXTT10=
EXTT11=
EXTT12=
PLAYORDER=
